<mxfile host="app.diagrams.net" modified="2024-01-06T09:48:38.780Z" agent="Mozilla/5.0 (Windows NT 10.0; Win64; x64) AppleWebKit/537.36 (KHTML, like Gecko) Chrome/120.0.0.0 Safari/537.36 Edg/120.0.0.0" etag="3lAZ93L1m7c3FSPn6S0-" version="22.1.17" type="github">
  <diagram name="Page-1" id="7pGj0cGWovisnuuSBgyn">
    <mxGraphModel dx="6895" dy="3755" grid="1" gridSize="10" guides="1" tooltips="1" connect="1" arrows="1" fold="1" page="1" pageScale="1" pageWidth="4000" pageHeight="4000" math="0" shadow="0">
      <root>
        <mxCell id="0" />
        <mxCell id="1" parent="0" />
        <mxCell id="qSkY3UhbcV8NGNF9wlO--32" value="" style="group;strokeWidth=10;fontSize=70;" vertex="1" connectable="0" parent="1">
          <mxGeometry x="500" y="240" width="3168" height="3520" as="geometry" />
        </mxCell>
        <mxCell id="qSkY3UhbcV8NGNF9wlO--2" value="" style="swimlane;startSize=0;strokeWidth=10;fontSize=70;" vertex="1" parent="qSkY3UhbcV8NGNF9wlO--32">
          <mxGeometry x="915.2" width="2252.8" height="3520" as="geometry" />
        </mxCell>
        <mxCell id="qSkY3UhbcV8NGNF9wlO--4" value="&lt;font style=&quot;font-size: 70px;&quot;&gt;Turn On the extension&lt;/font&gt;" style="ellipse;whiteSpace=wrap;html=1;strokeWidth=10;fontSize=70;" vertex="1" parent="qSkY3UhbcV8NGNF9wlO--2">
          <mxGeometry x="316.8" y="563.2" width="774.4" height="352" as="geometry" />
        </mxCell>
        <mxCell id="qSkY3UhbcV8NGNF9wlO--6" value="&lt;font style=&quot;font-size: 70px;&quot;&gt;Turn Off the extension&lt;/font&gt;" style="ellipse;whiteSpace=wrap;html=1;strokeWidth=10;fontSize=70;" vertex="1" parent="qSkY3UhbcV8NGNF9wlO--2">
          <mxGeometry x="1302.4" y="140.8" width="774.4" height="352" as="geometry" />
        </mxCell>
        <mxCell id="qSkY3UhbcV8NGNF9wlO--7" value="" style="endArrow=classic;dashed=1;html=1;dashPattern=1 3;strokeWidth=10;rounded=0;exitX=0;exitY=1;exitDx=0;exitDy=0;endFill=1;entryX=1;entryY=0.5;entryDx=0;entryDy=0;fontSize=70;" edge="1" parent="qSkY3UhbcV8NGNF9wlO--2" source="qSkY3UhbcV8NGNF9wlO--6" target="qSkY3UhbcV8NGNF9wlO--4">
          <mxGeometry width="50" height="50" relative="1" as="geometry">
            <mxPoint x="1443.2" y="598.4" as="sourcePoint" />
            <mxPoint x="1619.2" y="422.40000000000003" as="targetPoint" />
          </mxGeometry>
        </mxCell>
        <mxCell id="qSkY3UhbcV8NGNF9wlO--8" value="&lt;font style=&quot;font-size: 65px;&quot;&gt;&amp;lt;&amp;lt;extends&amp;gt;&amp;gt;&lt;/font&gt;" style="text;html=1;align=center;verticalAlign=middle;resizable=0;points=[];autosize=1;strokeColor=none;fillColor=none;strokeWidth=10;fontSize=65;" vertex="1" parent="qSkY3UhbcV8NGNF9wlO--2">
          <mxGeometry x="1224.8" y="580" width="400" height="90" as="geometry" />
        </mxCell>
        <mxCell id="qSkY3UhbcV8NGNF9wlO--9" value="&lt;font style=&quot;font-size: 70px;&quot;&gt;Clicks Reveal blocked Spoiler Button&lt;/font&gt;" style="ellipse;whiteSpace=wrap;html=1;strokeWidth=10;fontSize=70;" vertex="1" parent="qSkY3UhbcV8NGNF9wlO--2">
          <mxGeometry x="316.8" y="1302.4" width="774.4" height="352" as="geometry" />
        </mxCell>
        <mxCell id="qSkY3UhbcV8NGNF9wlO--10" value="&lt;font style=&quot;font-size: 70px;&quot;&gt;Click Downvote Button&lt;/font&gt;" style="ellipse;whiteSpace=wrap;html=1;strokeWidth=10;fontSize=70;" vertex="1" parent="qSkY3UhbcV8NGNF9wlO--2">
          <mxGeometry x="1372.8" y="1619.2" width="774.4" height="352" as="geometry" />
        </mxCell>
        <mxCell id="qSkY3UhbcV8NGNF9wlO--11" value="&lt;font style=&quot;font-size: 70px;&quot;&gt;Click Upvote Button&lt;/font&gt;" style="ellipse;whiteSpace=wrap;html=1;strokeWidth=10;fontSize=70;" vertex="1" parent="qSkY3UhbcV8NGNF9wlO--2">
          <mxGeometry x="1372.8" y="985.6" width="774.4" height="352" as="geometry" />
        </mxCell>
        <mxCell id="qSkY3UhbcV8NGNF9wlO--12" value="" style="endArrow=classic;dashed=1;html=1;dashPattern=1 3;strokeWidth=10;rounded=0;exitX=0;exitY=1;exitDx=0;exitDy=0;endFill=1;entryX=1;entryY=0;entryDx=0;entryDy=0;fontSize=70;" edge="1" parent="qSkY3UhbcV8NGNF9wlO--2" source="qSkY3UhbcV8NGNF9wlO--11" target="qSkY3UhbcV8NGNF9wlO--9">
          <mxGeometry width="50" height="50" relative="1" as="geometry">
            <mxPoint x="1203.84" y="932.8000000000001" as="sourcePoint" />
            <mxPoint x="880" y="1302.4" as="targetPoint" />
          </mxGeometry>
        </mxCell>
        <mxCell id="qSkY3UhbcV8NGNF9wlO--13" value="&lt;font style=&quot;font-size: 65px;&quot;&gt;&amp;lt;&amp;lt;extends&amp;gt;&amp;gt;&lt;/font&gt;" style="text;html=1;align=center;verticalAlign=middle;resizable=0;points=[];autosize=1;strokeColor=none;fillColor=none;strokeWidth=10;fontSize=65;" vertex="1" parent="qSkY3UhbcV8NGNF9wlO--2">
          <mxGeometry x="974.8" y="1200" width="400" height="90" as="geometry" />
        </mxCell>
        <mxCell id="qSkY3UhbcV8NGNF9wlO--14" value="" style="endArrow=classic;dashed=1;html=1;dashPattern=1 3;strokeWidth=10;rounded=0;exitX=0;exitY=0.5;exitDx=0;exitDy=0;endFill=1;entryX=1;entryY=1;entryDx=0;entryDy=0;fontSize=70;" edge="1" parent="qSkY3UhbcV8NGNF9wlO--2" source="qSkY3UhbcV8NGNF9wlO--10" target="qSkY3UhbcV8NGNF9wlO--9">
          <mxGeometry width="50" height="50" relative="1" as="geometry">
            <mxPoint x="1063.04" y="1689.6000000000001" as="sourcePoint" />
            <mxPoint x="739.2" y="2059.2" as="targetPoint" />
          </mxGeometry>
        </mxCell>
        <mxCell id="qSkY3UhbcV8NGNF9wlO--15" value="&lt;font style=&quot;font-size: 65px;&quot;&gt;&amp;lt;&amp;lt;extends&amp;gt;&amp;gt;&lt;/font&gt;" style="text;html=1;align=center;verticalAlign=middle;resizable=0;points=[];autosize=1;strokeColor=none;fillColor=none;strokeWidth=10;fontSize=65;" vertex="1" parent="qSkY3UhbcV8NGNF9wlO--2">
          <mxGeometry x="840.6" y="1715" width="400" height="90" as="geometry" />
        </mxCell>
        <mxCell id="qSkY3UhbcV8NGNF9wlO--16" value="&lt;span style=&quot;font-size: 70px;&quot;&gt;Click &quot;Flag it as spoiler&quot; Button&lt;/span&gt;" style="ellipse;whiteSpace=wrap;html=1;strokeWidth=10;fontSize=70;" vertex="1" parent="qSkY3UhbcV8NGNF9wlO--2">
          <mxGeometry x="316.8" y="1971.2" width="774.4" height="352" as="geometry" />
        </mxCell>
        <mxCell id="qSkY3UhbcV8NGNF9wlO--17" value="&lt;span style=&quot;font-size: 70px;&quot;&gt;Click &quot;Show Blocked Movies&quot; Button&lt;/span&gt;" style="ellipse;whiteSpace=wrap;html=1;strokeWidth=10;fontSize=70;" vertex="1" parent="qSkY3UhbcV8NGNF9wlO--2">
          <mxGeometry x="316.8" y="2499.2000000000003" width="774.4" height="352" as="geometry" />
        </mxCell>
        <mxCell id="qSkY3UhbcV8NGNF9wlO--18" value="&lt;span style=&quot;font-size: 70px;&quot;&gt;Click &quot;Add movies&quot; Button&lt;/span&gt;" style="ellipse;whiteSpace=wrap;html=1;strokeWidth=10;fontSize=70;" vertex="1" parent="qSkY3UhbcV8NGNF9wlO--2">
          <mxGeometry x="1372.8" y="2323.2000000000003" width="774.4" height="352" as="geometry" />
        </mxCell>
        <mxCell id="qSkY3UhbcV8NGNF9wlO--19" value="&lt;span style=&quot;font-size: 70px;&quot;&gt;Click &quot;Remove movies&quot; Button&lt;/span&gt;" style="ellipse;whiteSpace=wrap;html=1;strokeWidth=10;fontSize=70;" vertex="1" parent="qSkY3UhbcV8NGNF9wlO--2">
          <mxGeometry x="1372.8" y="2921.6" width="774.4" height="352" as="geometry" />
        </mxCell>
        <mxCell id="qSkY3UhbcV8NGNF9wlO--20" value="" style="endArrow=classic;dashed=1;html=1;dashPattern=1 3;strokeWidth=10;rounded=0;exitX=0;exitY=0.5;exitDx=0;exitDy=0;endFill=1;entryX=1;entryY=1;entryDx=0;entryDy=0;fontSize=70;" edge="1" parent="qSkY3UhbcV8NGNF9wlO--2" source="qSkY3UhbcV8NGNF9wlO--19" target="qSkY3UhbcV8NGNF9wlO--17">
          <mxGeometry width="50" height="50" relative="1" as="geometry">
            <mxPoint x="1372.8" y="3043.5327999999995" as="sourcePoint" />
            <mxPoint x="978.5600000000001" y="2849.9327999999996" as="targetPoint" />
          </mxGeometry>
        </mxCell>
        <mxCell id="qSkY3UhbcV8NGNF9wlO--21" value="&lt;font style=&quot;font-size: 65px;&quot;&gt;&amp;lt;&amp;lt;extends&amp;gt;&amp;gt;&lt;/font&gt;" style="text;html=1;align=center;verticalAlign=middle;resizable=0;points=[];autosize=1;strokeColor=none;fillColor=none;strokeWidth=10;fontSize=65;" vertex="1" parent="qSkY3UhbcV8NGNF9wlO--2">
          <mxGeometry x="770.2" y="2943.1327999999994" width="400" height="90" as="geometry" />
        </mxCell>
        <mxCell id="qSkY3UhbcV8NGNF9wlO--22" value="" style="endArrow=classic;dashed=1;html=1;dashPattern=1 3;strokeWidth=10;rounded=0;exitX=0;exitY=0.5;exitDx=0;exitDy=0;endFill=1;entryX=1;entryY=0;entryDx=0;entryDy=0;fontSize=70;" edge="1" parent="qSkY3UhbcV8NGNF9wlO--2" source="qSkY3UhbcV8NGNF9wlO--18" target="qSkY3UhbcV8NGNF9wlO--17">
          <mxGeometry width="50" height="50" relative="1" as="geometry">
            <mxPoint x="1478.4" y="2797.1328000000008" as="sourcePoint" />
            <mxPoint x="1084.16" y="2497.9327999999996" as="targetPoint" />
          </mxGeometry>
        </mxCell>
        <mxCell id="qSkY3UhbcV8NGNF9wlO--23" value="&lt;font style=&quot;font-size: 65px;&quot;&gt;&amp;lt;&amp;lt;extends&amp;gt;&amp;gt;&lt;/font&gt;" style="text;html=1;align=center;verticalAlign=middle;resizable=0;points=[];autosize=1;strokeColor=none;fillColor=none;strokeWidth=10;fontSize=65;" vertex="1" parent="qSkY3UhbcV8NGNF9wlO--2">
          <mxGeometry x="954.8000000000001" y="2390" width="400" height="90" as="geometry" />
        </mxCell>
        <mxCell id="qSkY3UhbcV8NGNF9wlO--31" value="&lt;font style=&quot;font-size: 70px;&quot;&gt;System&lt;/font&gt;" style="text;html=1;align=center;verticalAlign=middle;resizable=0;points=[];autosize=1;strokeColor=none;fillColor=none;strokeWidth=10;fontSize=70;" vertex="1" parent="qSkY3UhbcV8NGNF9wlO--2">
          <mxGeometry x="895.6" y="0.20000000000000284" width="260" height="100" as="geometry" />
        </mxCell>
        <mxCell id="qSkY3UhbcV8NGNF9wlO--3" value="&lt;font style=&quot;font-size: 70px;&quot;&gt;User&lt;/font&gt;" style="shape=umlActor;verticalLabelPosition=bottom;verticalAlign=top;html=1;outlineConnect=0;strokeWidth=10;fontSize=70;" vertex="1" parent="qSkY3UhbcV8NGNF9wlO--32">
          <mxGeometry y="1091.2" width="422.40000000000003" height="848.32" as="geometry" />
        </mxCell>
        <mxCell id="qSkY3UhbcV8NGNF9wlO--24" value="" style="endArrow=none;html=1;rounded=0;exitX=0;exitY=0.5;exitDx=0;exitDy=0;strokeWidth=10;fontSize=70;" edge="1" parent="qSkY3UhbcV8NGNF9wlO--32" source="qSkY3UhbcV8NGNF9wlO--4" target="qSkY3UhbcV8NGNF9wlO--3">
          <mxGeometry width="50" height="50" relative="1" as="geometry">
            <mxPoint x="633.6" y="809.6" as="sourcePoint" />
            <mxPoint x="563.2" y="809.6" as="targetPoint" />
          </mxGeometry>
        </mxCell>
        <mxCell id="qSkY3UhbcV8NGNF9wlO--25" value="" style="endArrow=none;html=1;rounded=0;exitX=0;exitY=0.5;exitDx=0;exitDy=0;strokeWidth=10;fontSize=70;" edge="1" parent="qSkY3UhbcV8NGNF9wlO--32" source="qSkY3UhbcV8NGNF9wlO--9" target="qSkY3UhbcV8NGNF9wlO--3">
          <mxGeometry width="50" height="50" relative="1" as="geometry">
            <mxPoint x="1267.2" y="774.4" as="sourcePoint" />
            <mxPoint x="281.6" y="1122.88" as="targetPoint" />
          </mxGeometry>
        </mxCell>
        <mxCell id="qSkY3UhbcV8NGNF9wlO--27" value="" style="endArrow=none;html=1;rounded=0;exitX=0;exitY=0.5;exitDx=0;exitDy=0;entryX=1;entryY=1;entryDx=0;entryDy=0;entryPerimeter=0;strokeWidth=10;fontSize=70;" edge="1" parent="qSkY3UhbcV8NGNF9wlO--32" source="qSkY3UhbcV8NGNF9wlO--17" target="qSkY3UhbcV8NGNF9wlO--3">
          <mxGeometry width="50" height="50" relative="1" as="geometry">
            <mxPoint x="1232" y="2337.28" as="sourcePoint" />
            <mxPoint x="246.4" y="1654.4" as="targetPoint" />
          </mxGeometry>
        </mxCell>
        <mxCell id="qSkY3UhbcV8NGNF9wlO--26" value="" style="endArrow=none;html=1;rounded=0;exitX=0;exitY=0.5;exitDx=0;exitDy=0;strokeWidth=10;fontSize=70;" edge="1" parent="qSkY3UhbcV8NGNF9wlO--32" source="qSkY3UhbcV8NGNF9wlO--16" target="qSkY3UhbcV8NGNF9wlO--3">
          <mxGeometry width="50" height="50" relative="1" as="geometry">
            <mxPoint x="1232" y="1724.8" as="sourcePoint" />
            <mxPoint x="246.4" y="1689.6000000000001" as="targetPoint" />
          </mxGeometry>
        </mxCell>
      </root>
    </mxGraphModel>
  </diagram>
</mxfile>
